{"title":"Katy Perry - Firework [720p][hd][chitra.dmj]","uid":5971824,"size":61186217,"categoryP":"video","categoryS":"music_videos","magnet":"?xt=urn:btih:9dd411c41e5c206da4087479722f18f3152f48f2&amp;dn=Katy+Perry+-+Firework+%5B720p%5D%5Bhd%5D%5Bchitra.dmj%5D&amp;tr=udp%3A%2F%2Ftracker.openbittorrent.com%3A80&amp;tr=udp%3A%2F%2Fopen.demonii.com%3A1337&amp;tr=udp%3A%2F%2Ftracker.coppersurfer.tk%3A6969&amp;tr=udp%3A%2F%2Fexodus.desync.com%3A6969","seeders":8,"leechers":0,"uploader":"chitra_dmj","files":5,"time":1290314750,"description":"lyrics\n\nDo you ever feel like a plastic bag\nDrifting throught the wind\nWanting to start again\n\nDo you ever feel, feel so paper thin\nLike a house of cards\nOne blow from caving in\n\nDo you ever feel already buried deep\nSix feet under scream\nBut no one seems to hear a thing\n\nDo you know that tehre's still a chance for you\nCause there's a spark in you\n\nYou just gotta ignite the light\nAnd let it shine\nJust own the night\nLike the Fourth of July\n\nCause baby you're a firework\nCome on show 'em what your worth\nMake 'em go &quot;Oh, oh, oh!&quot;\nAs you shoot across the sky-y-y\n\nBaby you're a firework\nCome on let your colors burst\nMake 'em go &quot;Oh, oh, oh!&quot;\nYou're gunna leave 'em fallin' down-own-own\n\nYou don't have to feel like a waste of space\nYou're original, cannot be replaced\nIf you only knew what the future holds\nAfter a hurricane comes a rainbow\n\nMaybe you're reason why all the doors are closed\nSo you can open one that leads you to the perfect road\n\nLike a lightning bolt, your heart will blow\nAnd when it's time, you'll know\n\nYou just gotta ignite the light\nAnd let it shine\nJust own the night\nLike the Fourth of July\n\nCause baby you're a firework\nCome on show 'em what your worth\nMake 'em go &quot;Oh, oh, oh!&quot;\nAs you shoot across the sky-y-y\n\nBaby you're a firework\nCome on slet your colors burst\nMake 'em go &quot;Oh, oh, oh!&quot;\nYou're gunna leave 'em fallin' down-own-own\n\nBoom, boom, boom\nEven brighter than the moon, moon, moon\nIt's always been inside of you, you, you\nAnd now it's time to let it through\n\nCause baby you're a firework\nCome on show 'em what your worth\nMake 'em go &quot;Oh, oh, oh!&quot;\nAs you shoot across the sky-y-y\n\nBaby you're a firework\nCome on slet your colors burst\nMake 'em go &quot;Oh, oh, oh!&quot;\nYou're gunna leave 'em goin &quot;Oh, oh, oh!&quot;\n\nBoom, boom, boom\nEven brighter than the moon, moon, moon\nBoom, boom, boom\nEven brighter than the moon, moon, moon[/b]\n\n[b]General\nComplete name                    : Katy Perry - Firework.mp4\nFormat                           : MPEG-4\nFormat profile                   : Base Media / Version 2\nCodec ID                         : mp42\nFile size                        : 58.3 MiB\nDuration                         : 3mn 57s\nOverall bit rate                 : 2 059 Kbps\n\n\nVideo\nID                               : 1\nFormat                           : AVC\nFormat/Info                      : Advanced Video Codec\nFormat profile                   : &lt;a class=&quot;__cf_email__&quot; href=&quot;/cdn-cgi/l/email-protection&quot; data-cfemail=&quot;cd85a4aaa58d81fee3fc&quot;&gt;[email&amp;#160;protected]&lt;/a&gt;&lt;script cf-hash='f9e31' type=&quot;text/javascript&quot;&gt;\n/* &lt;![CDATA[ */!function(){try{var t=&quot;currentScript&quot;in document?document.currentScript:function(){for(var t=document.getElementsByTagName(&quot;script&quot;),e=t.length;e--;)if(t[e].getAttribute(&quot;cf-hash&quot;))return t[e]}();if(t&amp;&amp;t.previousSibling){var e,r,n,i,c=t.previousSibling,a=c.getAttribute(&quot;data-cfemail&quot;);if(a){for(e=&quot;&quot;,r=parseInt(a.substr(0,2),16),n=2;a.length-n;n+=2)i=parseInt(a.substr(n,2),16)^r,e+=String.fromCharCode(i);e=document.createTextNode(e),c.parentNode.replaceChild(e,c)}}}catch(u){}}();/* ]]&gt; */&lt;/script&gt;\nFormat settings, CABAC           : Yes\nFormat settings, ReFrames        : 1 frame\nCodec ID                         : avc1\nCodec ID/Info                    : Advanced Video Coding\nDuration                         : 3mn 57s\nBit rate mode                    : Variable\nBit rate                         : 1 927 Kbps\nMaximum bit rate                 : 8 410 Kbps\nWidth                            : 1 280 pixels\nHeight                           : 720 pixels\nDisplay aspect ratio             : 16:9\nFrame rate mode                  : Variable\nFrame rate                       : 23.976 fps\nMinimum frame rate               : 17.241 fps\nMaximum frame rate               : 24.390 fps\nColor space                      : YUV\nChroma subsampling               : 4:2:0\nBit depth                        : 8 bits\nScan type                        : Progressive\nBits/(Pixel*Frame)               : 0.087\nStream size                      : 54.6 MiB (94%)\n\n\nAudio\nID                               : 2\nFormat                           : AAC\nFormat/Info                      : Advanced Audio Codec\nFormat version                   : Version 4\nFormat profile                   : LC\nFormat settings, SBR             : No\nCodec ID                         : 40\nDuration                         : 3mn 57s\nBit rate mode                    : Variable\nBit rate                         : 126 Kbps\nMaximum bit rate                 : 161 Kbps\nChannel(s)                       : 2 channels\nChannel positions                : Front: L R\nSampling rate                    : 44.1 KHz\nStream size                      : 3.58 MiB (6%)\n\nSCREENSHOT-\n &lt;a href=&quot;\nhttp://www.postimg.com/24000/23958.jpg&quot; rel=&quot;nofollow&quot; target=&quot;_NEW&quot;&gt;\nhttp://www.postimg.com/24000/23958.jpg&lt;/a&gt;","torrent":{"xt":"urn:btih:9dd411c41e5c206da4087479722f18f3152f48f2","amp;dn":"Katy+Perry+-+Firework+%5B720p%5D%5Bhd%5D%5Bchitra.dmj%5D","amp;tr":["udp%3A%2F%2Ftracker.openbittorrent.com%3A80","udp%3A%2F%2Fopen.demonii.com%3A1337","udp%3A%2F%2Ftracker.coppersurfer.tk%3A6969","udp%3A%2F%2Fexodus.desync.com%3A6969"],"infoHash":"9dd411c41e5c206da4087479722f18f3152f48f2","infoHashBuffer":{"type":"Buffer","data":[157,212,17,196,30,92,32,109,164,8,116,121,114,47,24,243,21,47,72,242]},"announce":[],"urlList":[]}}